<svg xmlns="http://www.w3.org/2000/svg" xmlns:xlink="http://www.w3.org/1999/xlink" width="150" zoomAndPan="magnify" viewBox="0 0 112.5 112.499997" height="150" preserveAspectRatio="xMidYMid meet" version="1.0"><defs><clipPath id="07f7672a9b"><path d="M 16.242188 0 L 91 0 L 91 108 L 16.242188 108 Z M 16.242188 0 " clip-rule="nonzero"/></clipPath><clipPath id="2c62aec2cb"><path d="M 16.242188 1 L 91 1 L 91 108 L 16.242188 108 Z M 16.242188 1 " clip-rule="nonzero"/></clipPath><clipPath id="3dfd739e35"><path d="M 16.242188 45 L 72 45 L 72 108 L 16.242188 108 Z M 16.242188 45 " clip-rule="nonzero"/></clipPath><clipPath id="b99646fb1a"><path d="M 27 6 L 96.136719 6 L 96.136719 110 L 27 110 Z M 27 6 " clip-rule="nonzero"/></clipPath></defs><g clip-path="url(#07f7672a9b)"><path fill="#323738" d="M 90.515625 8.425781 L 79.550781 2.175781 C 79.070312 1.824219 78.554688 1.53125 78.007812 1.292969 L 77.847656 1.203125 L 77.839844 1.21875 C 74.890625 0.0234375 71.078125 0.457031 66.921875 2.84375 L 33.144531 22.25 C 23.855469 27.589844 16.257812 40.6875 16.257812 51.363281 L 16.257812 90.179688 C 16.257812 95.382812 18.074219 99.078125 21.003906 100.886719 L 20.976562 100.9375 L 33.164062 107.8125 L 40.015625 95.9375 L 66.921875 80.476562 C 76.207031 75.140625 83.808594 62.039062 83.808594 51.363281 L 83.808594 20.050781 Z M 90.515625 8.425781 " fill-opacity="1" fill-rule="nonzero"/></g><g clip-path="url(#2c62aec2cb)"><path fill="#252b2d" d="M 90.515625 8.425781 L 78.777344 5.6875 C 78.296875 5.339844 75.898438 5.347656 75.351562 5.109375 L 74.484375 4.761719 L 72.917969 4.472656 C 69.964844 3.28125 71.078125 0.453125 66.921875 2.84375 L 33.144531 22.25 C 23.855469 27.589844 16.257812 40.6875 16.257812 51.363281 L 16.257812 90.179688 C 16.257812 95.382812 18.074219 99.078125 21.003906 100.886719 L 20.976562 100.9375 L 33.164062 107.8125 L 40.015625 95.9375 L 66.921875 80.476562 C 76.207031 75.140625 83.808594 62.039062 83.808594 51.363281 L 83.808594 20.050781 Z M 90.515625 8.425781 " fill-opacity="1" fill-rule="nonzero"/></g><g clip-path="url(#3dfd739e35)"><path fill="#090c0c" d="M 16.902344 45.769531 C 16.496094 47.671875 16.261719 49.554688 16.261719 51.363281 L 16.261719 90.179688 C 16.261719 95.382812 18.078125 99.078125 21.003906 100.886719 L 20.976562 100.9375 L 33.164062 107.8125 L 40.019531 95.9375 L 66.925781 80.476562 C 68.5 79.570312 70.027344 78.421875 71.476562 77.117188 Z M 16.902344 45.769531 " fill-opacity="1" fill-rule="nonzero"/></g><path fill="#3b4142" d="M 44.753906 28.949219 C 35.46875 34.289062 27.867188 47.386719 27.867188 58.0625 L 27.867188 96.878906 C 27.867188 107.554688 35.46875 111.921875 44.753906 106.582031 L 78.53125 87.175781 C 87.816406 81.839844 95.417969 68.738281 95.417969 58.0625 L 95.417969 19.246094 C 95.417969 8.570312 87.816406 4.207031 78.53125 9.542969 Z M 44.753906 28.949219 " fill-opacity="1" fill-rule="nonzero"/><path fill="#383e3f" d="M 95.417969 19.246094 C 95.417969 8.570312 87.816406 4.207031 78.527344 9.542969 L 44.753906 28.949219 C 35.46875 34.289062 27.867188 47.386719 27.867188 58.0625 L 27.867188 96.878906 C 27.867188 107.554688 35.46875 111.921875 44.753906 106.582031 " fill-opacity="0.2" fill-rule="nonzero"/><path fill="#3b4142" d="M 28.101562 55.144531 L 95.1875 16.59375 C 95.292969 15.789062 95.359375 14.988281 95.390625 14.199219 L 27.898438 52.984375 C 27.925781 53.738281 27.996094 54.460938 28.101562 55.144531 Z M 28.101562 55.144531 " fill-opacity="1" fill-rule="nonzero"/><g clip-path="url(#b99646fb1a)"><path fill="#4f5759" d="M 37.253906 109.554688 L 37.25 109.554688 C 31.128906 109.554688 27.171875 104.578125 27.171875 96.878906 L 27.171875 58.0625 C 27.171875 47.140625 34.902344 33.8125 44.40625 28.351562 L 78.183594 8.941406 C 80.921875 7.367188 83.5625 6.574219 86.03125 6.574219 C 92.15625 6.574219 96.113281 11.546875 96.113281 19.246094 L 96.113281 58.0625 C 96.113281 68.988281 88.382812 82.316406 78.878906 87.777344 L 45.101562 107.183594 C 42.363281 108.757812 39.726562 109.554688 37.253906 109.554688 Z M 86.035156 7.957031 C 83.808594 7.957031 81.402344 8.691406 78.878906 10.140625 L 45.101562 29.546875 C 35.984375 34.789062 28.5625 47.578125 28.5625 58.058594 L 28.5625 96.878906 C 28.5625 103.839844 31.890625 108.164062 37.25 108.164062 L 37.253906 108.164062 C 39.476562 108.164062 41.882812 107.429688 44.40625 105.980469 L 78.183594 86.574219 C 87.300781 81.332031 94.71875 68.542969 94.71875 58.0625 L 94.71875 19.242188 C 94.722656 12.28125 91.394531 7.957031 86.035156 7.957031 Z M 86.035156 7.957031 " fill-opacity="1" fill-rule="nonzero"/></g><path fill="#ff4d8d" d="M 41.308594 39.839844 C 41.308594 38.945312 41.945312 37.847656 42.722656 37.398438 C 43.5 36.953125 44.136719 37.316406 44.136719 38.210938 C 44.136719 39.109375 43.5 40.203125 42.722656 40.652344 C 41.945312 41.097656 41.308594 40.734375 41.308594 39.839844 Z M 41.308594 39.839844 " fill-opacity="1" fill-rule="nonzero"/><path fill="#ea2864" d="M 42.722656 40.652344 C 41.945312 41.097656 41.3125 40.734375 41.308594 39.839844 C 41.3125 38.945312 41.945312 37.847656 42.722656 37.398438 " fill-opacity="1" fill-rule="nonzero"/><path fill="#f7d011" d="M 47.335938 36.410156 C 47.335938 35.511719 47.972656 34.417969 48.75 33.972656 C 49.527344 33.523438 50.164062 33.890625 50.164062 34.785156 C 50.164062 35.675781 49.527344 36.773438 48.75 37.222656 C 47.972656 37.667969 47.335938 37.304688 47.335938 36.410156 Z M 47.335938 36.410156 " fill-opacity="1" fill-rule="nonzero"/><path fill="#f4b414" d="M 48.75 37.222656 C 47.972656 37.667969 47.335938 37.304688 47.335938 36.410156 C 47.335938 35.511719 47.972656 34.417969 48.75 33.972656 " fill-opacity="1" fill-rule="nonzero"/><path fill="#15eaa8" d="M 53.363281 32.980469 C 53.363281 32.085938 54 30.988281 54.777344 30.539062 C 55.554688 30.09375 56.191406 30.457031 56.191406 31.355469 C 56.191406 32.25 55.554688 33.34375 54.777344 33.792969 C 54 34.238281 53.363281 33.871094 53.363281 32.980469 Z M 53.363281 32.980469 " fill-opacity="1" fill-rule="nonzero"/><path fill="#08c1b3" d="M 54.777344 33.792969 C 54 34.238281 53.363281 33.871094 53.363281 32.980469 C 53.363281 32.085938 54 30.988281 54.777344 30.539062 " fill-opacity="1" fill-rule="nonzero"/><path fill="#ffffff" d="M 58.808594 69.390625 C 58.378906 69.390625 57.941406 69.28125 57.542969 69.054688 L 44.378906 61.488281 C 43.167969 60.792969 42.753906 59.25 43.453125 58.042969 C 44.152344 56.835938 45.699219 56.421875 46.914062 57.121094 L 60.078125 64.683594 C 61.292969 65.382812 61.707031 66.925781 61.003906 68.128906 C 60.535156 68.9375 59.683594 69.390625 58.808594 69.390625 Z M 58.808594 69.390625 " fill-opacity="1" fill-rule="nonzero"/><path fill="#ffffff" d="M 45.644531 92.082031 C 45.214844 92.082031 44.78125 91.976562 44.378906 91.746094 C 43.167969 91.050781 42.753906 89.507812 43.453125 88.300781 L 56.617188 65.605469 C 57.316406 64.398438 58.863281 63.984375 60.078125 64.683594 C 61.292969 65.378906 61.707031 66.921875 61.007812 68.128906 L 47.84375 90.824219 C 47.371094 91.632812 46.519531 92.082031 45.644531 92.082031 Z M 45.644531 92.082031 " fill-opacity="1" fill-rule="nonzero"/><path fill="#ffffff" d="M 63.203125 82 C 62.328125 82 61.476562 81.546875 61.007812 80.738281 C 60.308594 79.53125 60.722656 77.992188 61.933594 77.292969 L 79.488281 67.207031 C 80.703125 66.507812 82.25 66.925781 82.949219 68.128906 C 83.648438 69.335938 83.234375 70.878906 82.023438 71.574219 L 64.46875 81.664062 C 64.070312 81.890625 63.632812 82 63.203125 82 Z M 63.203125 82 " fill-opacity="1" fill-rule="nonzero"/></svg>